<svg fill="#FFFFFF" xmlns="http://www.w3.org/2000/svg"  viewBox="0 0 64 64" width="128px" height="128px"><path d="M25.253,32.919h-4.308v4.957h4.308c0.374,0,2.995-0.122,2.995-2.386C28.249,33.223,26.189,32.919,25.253,32.919z"/><path d="M41.116,29.463c-2.895,0-3.37,2.791-3.37,2.975h6.341C43.889,31.51,43.058,29.463,41.116,29.463z"/><path d="M27.54,28.142c0-1.887-2.435-2.021-2.808-2.021h-3.746v4.225h4.121C25.668,30.346,27.54,30.029,27.54,28.142z"/><path d="M48,8H16c-4.418,0-8,3.582-8,8v32c0,4.418,3.582,8,8,8h32c4.418,0,8-3.582,8-8V16C56,11.582,52.418,8,48,8z M36,23h10 v2.571H36V23z M26.135,41h-8.988V23.001h8.613c0.935,0,5.991-0.06,5.991,4.59c0,2.472-1.686,3.307-2.435,3.673 c1.123,0.368,3.183,1.409,3.183,4.591C32.5,40.787,26.883,40.999,26.135,41z M37.945,34.638c0,1.106,0.589,3.602,3.55,3.602 c0.789,0,1.38-0.187,1.971-0.555c0.591-0.37,0.788-0.737,0.985-1.106h3.351c-0.591,1.474-1.378,2.58-2.563,3.317 C44.057,40.633,42.675,41,41.099,41c-0.986,0-1.973-0.185-2.958-0.555c-0.789-0.37-1.577-0.919-2.167-1.473 c-0.592-0.55-0.986-1.288-1.38-2.209C34.199,36.027,34,34.92,34,34c0-0.919,0.368-7,7.298-7c4.959,0,6.306,3.869,6.505,4.792 C48,32.715,48,33.532,48,34.638H37.945z"/></svg>